<?xml version="1.0" standalone="no"?>
<!DOCTYPE svg PUBLIC "-//W3C//DTD SVG 20010904//EN"
 "http://www.w3.org/TR/2001/REC-SVG-20010904/DTD/svg10.dtd">
<svg version="1.0" xmlns="http://www.w3.org/2000/svg"
 width="1915.000000pt" height="1915.000000pt" viewBox="0 0 1915.000000 1915.000000"
 preserveAspectRatio="xMidYMid meet">
<metadata>
Created by potrace 1.11, written by Peter Selinger 2001-2013
</metadata>
<g transform="translate(0.000000,1915.000000) scale(0.100000,-0.100000)"
fill="#000000" stroke="none">
<path d="M9095 19139 c-2997 -151 -5760 -1706 -7447 -4189 -423 -622 -785
-1323 -1048 -2030 -765 -2051 -800 -4321 -100 -6411 231 -687 571 -1410 945
-2009 585 -936 1300 -1744 2145 -2425 1414 -1138 3109 -1849 4915 -2060 245
-28 1360 -19 1805 15 1905 147 3740 869 5230 2058 689 550 1266 1155 1813
1903 89 122 287 422 389 590 1465 2397 1805 5311 931 7974 -617 1884 -1794
3518 -3388 4705 -1661 1237 -3685 1900 -5765 1888 -146 0 -337 -5 -425 -9z
m4809 -3304 c131 -34 155 -53 406 -304 442 -443 588 -616 638 -752 27 -72 44
-199 36 -263 -16 -132 -79 -287 -131 -321 -76 -50 -930 -828 -1057 -964 -17
-17 -35 -31 -40 -30 -6 0 -26 19 -44 42 -53 67 -358 383 -886 921 -270 274
-492 501 -494 505 -2 7 554 555 833 821 248 237 349 310 476 344 71 19 191 20
263 1z m-1274 -2110 c348 -363 671 -700 719 -748 l86 -89 -165 -159 -165 -159
-52 52 c-28 29 -354 368 -723 753 l-672 700 164 157 c90 87 166 156 169 155 3
-1 291 -299 639 -662z m-510 -708 c388 -401 706 -733 708 -737 3 -7 -675 -659
-4142 -3988 -517 -496 -943 -901 -947 -900 -9 4 -1413 1508 -1417 1519 -2 4
1022 981 2275 2171 1253 1190 2397 2277 2543 2415 146 139 267 252 270 252 3
-1 322 -330 710 -732z m-5341 -5100 c387 -401 701 -731 698 -734 -10 -10
-1825 -403 -1860 -403 -12 0 0 59 55 278 78 310 321 1303 363 1485 16 65 31
114 35 110 4 -4 323 -336 709 -736z m-3743 -1001 c75 -20 179 -78 271 -150
l81 -65 69 55 c92 74 168 120 250 149 l68 25 445 0 c478 0 496 -2 598 -53 313
-157 688 -604 1522 -1815 69 -100 128 -181 132 -182 4 0 102 138 219 308 565
818 827 1161 1084 1417 172 173 292 258 431 305 53 19 87 20 504 20 426 0 450
-1 511 -21 79 -26 148 -64 236 -133 l68 -52 70 53 c88 67 185 118 261 138 81
21 941 22 1020 1 131 -35 273 -133 454 -315 257 -259 508 -585 1080 -1406 122
-176 224 -321 224 -322 1 -1 65 89 141 200 661 962 969 1360 1249 1615 156
142 283 216 399 233 104 15 923 11 982 -5 94 -25 193 -85 287 -174 l56 -54 74
59 c96 76 166 120 233 148 30 12 52 25 48 28 -3 4 196 7 443 7 477 0 488 -1
585 -50 221 -112 502 -446 878 -1044 l62 -98 -111 -227 c-114 -232 -300 -581
-310 -581 -3 1 -92 151 -199 335 -223 384 -373 630 -508 833 -107 160 -277
390 -350 471 l-48 53 -100 -112 c-55 -62 -141 -164 -192 -227 l-92 -115 48
-72 c125 -184 317 -501 711 -1171 128 -218 291 -486 346 -571 13 -20 8 -30
-72 -145 -100 -142 -208 -287 -303 -407 l-66 -82 -33 37 c-42 49 -191 268
-275 405 -110 178 -258 441 -519 928 -138 256 -254 469 -258 473 -4 4 -128
-171 -276 -390 -322 -475 -465 -684 -592 -858 -371 -509 -640 -789 -840 -870
-32 -13 -49 -25 -41 -28 8 -3 -202 -6 -466 -6 l-480 0 -72 28 c-78 31 -169 92
-256 171 -30 27 -59 50 -64 50 -5 0 -22 -14 -39 -31 -71 -74 -261 -199 -305
-199 -11 0 -11 -2 1 -10 10 -6 -152 -10 -466 -10 l-482 0 -68 28 c-86 35 -167
90 -264 178 -260 237 -508 558 -1085 1404 -382 559 -398 582 -411 568 -6 -7
-150 -218 -319 -468 -612 -904 -804 -1161 -1069 -1426 -128 -128 -207 -190
-303 -239 -47 -23 -48 -24 -23 -34 17 -7 -145 -10 -510 -9 -294 0 -527 2 -517
5 28 7 20 16 -37 46 -61 32 -123 77 -209 150 l-56 49 -68 -60 c-77 -68 -190
-143 -245 -163 -25 -8 -34 -16 -25 -21 6 -4 -217 -8 -497 -8 -280 0 -507 3
-503 6 3 4 -24 21 -61 39 -172 84 -377 285 -653 641 -188 243 -296 395 -729
1029 -151 220 -286 417 -301 438 l-27 38 -25 -33 c-13 -18 -167 -244 -342
-503 -413 -610 -589 -855 -817 -1139 -17 -21 -17 -21 -33 -1 -60 77 -257 353
-330 463 l-88 133 39 57 c22 31 179 257 348 502 372 536 558 799 699 985 91
119 104 141 93 155 -7 8 -45 54 -85 102 -101 124 -281 319 -299 325 -18 7
-142 -118 -271 -272 -179 -215 -471 -619 -779 -1078 -97 -144 -108 -157 -120
-140 -23 30 -218 424 -292 590 l-70 156 42 56 c404 540 729 857 972 947 60 23
68 23 511 23 349 1 461 -2 501 -13z"/>
<path d="M14922 6674 c-65 -55 -274 -294 -403 -460 -157 -201 -352 -475 -609
-854 -391 -577 -553 -814 -644 -940 -49 -69 -103 -144 -119 -167 l-30 -42 79
-98 c101 -125 243 -289 284 -328 l32 -30 65 70 c81 86 296 355 424 530 118
160 281 393 604 860 297 430 437 626 599 840 67 88 125 166 129 172 8 14 -35
83 -137 218 -71 94 -216 265 -226 265 -3 0 -25 -16 -48 -36z"/>
<path d="M10304 6589 c-69 -73 -218 -244 -283 -327 -29 -38 -32 -45 -20 -61 8
-11 68 -90 135 -178 142 -187 292 -396 673 -942 320 -458 444 -629 616 -852
124 -161 300 -372 353 -422 l30 -28 84 98 c47 54 131 156 186 227 l102 128
-28 37 c-54 68 -319 446 -547 781 -610 894 -855 1222 -1120 1497 l-110 115
-71 -73z"/>
<path d="M4123 6567 c-82 -86 -282 -322 -290 -344 -3 -7 13 -34 34 -60 112
-135 330 -437 728 -1008 393 -562 575 -813 764 -1050 82 -103 273 -324 281
-324 14 -2 354 412 367 445 2 7 -27 54 -64 106 -97 130 -255 358 -573 823
-538 786 -770 1096 -1042 1388 -55 59 -105 107 -112 107 -7 0 -49 -37 -93 -83z"/>
<path d="M8614 6523 c-238 -263 -470 -577 -954 -1293 -332 -490 -479 -704
-598 -869 -95 -131 -103 -147 -92 -165 43 -69 324 -396 332 -386 2 3 33 39 69
80 207 239 396 497 956 1306 348 503 522 745 663 926 44 57 80 108 80 113 0
22 -330 395 -350 395 -5 0 -53 -48 -106 -107z"/>
</g>
</svg>
