
<?xml version="1.0" encoding="UTF-8" standalone="no"?>
<!-- Created with Inkscape (http://www.inkscape.org/) -->

<svg
   xmlns:dc="http://purl.org/dc/elements/1.1/"
   xmlns:cc="http://creativecommons.org/ns#"
   xmlns:rdf="http://www.w3.org/1999/02/22-rdf-syntax-ns#"
   xmlns:svg="http://www.w3.org/2000/svg"
   xmlns="http://www.w3.org/2000/svg"
   xmlns:sodipodi="http://sodipodi.sourceforge.net/DTD/sodipodi-0.dtd"
   xmlns:inkscape="http://www.inkscape.org/namespaces/inkscape"
   version="1.1"
   id="svg2"
   width="595.34149"
   height="595.34149"
   viewBox="0 0 595.3415 595.3415"
   sodipodi:docname="Epikness_of_Doom.svg"
   inkscape:version="0.92.2 5c3e80d, 2017-08-06">
  <metadata
     id="metadata8">
    <rdf:RDF>
      <cc:Work
         rdf:about="">
        <dc:format>image/svg+xml</dc:format>
        <dc:type
           rdf:resource="http://purl.org/dc/dcmitype/StillImage" />
        <dc:title></dc:title>
      </cc:Work>
    </rdf:RDF>
  </metadata>
  <defs
     id="defs6">
    <filter
       inkscape:collect="always"
       style="color-interpolation-filters:sRGB"
       id="filter6308"
       x="-0.069600001"
       width="1.1392"
       y="-0.069600001"
       height="1.1392">
      <feGaussianBlur
         inkscape:collect="always"
         stdDeviation="15.155288"
         id="feGaussianBlur6310" />
    </filter>
  </defs>
  <sodipodi:namedview
     pagecolor="#969696"
     bordercolor="#666666"
     borderopacity="1"
     objecttolerance="10"
     gridtolerance="10"
     guidetolerance="10"
     inkscape:pageopacity="0"
     inkscape:pageshadow="2"
     inkscape:window-width="1440"
     inkscape:window-height="799"
     id="namedview4"
     showgrid="false"
     inkscape:zoom="0.90509668"
     inkscape:cx="78.159311"
     inkscape:cy="286.00224"
     inkscape:window-x="0"
     inkscape:window-y="1"
     inkscape:window-maximized="1"
     inkscape:current-layer="layer3"
     inkscape:snap-bbox="false"
     inkscape:bbox-paths="false"
     inkscape:bbox-nodes="false"
     inkscape:snap-bbox-edge-midpoints="false"
     inkscape:snap-bbox-midpoints="false"
     inkscape:object-paths="false"
     inkscape:snap-intersection-paths="false"
     inkscape:snap-smooth-nodes="false"
     inkscape:snap-midpoints="false"
     inkscape:snap-object-midpoints="false"
     inkscape:object-nodes="false"
     inkscape:snap-nodes="false" />
  <g
     inkscape:groupmode="layer"
     id="layer1"
     inkscape:label="Layer 1"
     transform="translate(-481.77138,-678.9778)" />
  <g
     inkscape:groupmode="layer"
     id="layer2"
     inkscape:label="Layer 2"
     transform="translate(-481.77138,-678.9778)" />
  <g
     inkscape:groupmode="layer"
     id="layer3"
     inkscape:label="Layer 3"
     transform="translate(-481.77138,-678.9778)">
    <circle
       style="opacity:1;fill:#cbe2f2;fill-opacity:1;fill-rule:nonzero;stroke:none;stroke-width:8.87429619;stroke-miterlimit:4;stroke-dasharray:none;stroke-opacity:1;filter:url(#filter6308)"
       id="path5740"
       cx="779.44214"
       cy="976.64856"
       r="261.29807" />
    <g
       id="g5838"
       transform="translate(542.96171,740.43351)">
      <g
         transform="translate(-542.45087,-733.34082)"
         inkscape:label="Layer 1"
         id="layer1-8" />
      <g
         transform="translate(-542.45087,-733.34082)"
         inkscape:label="Layer 2"
         id="layer2-6" />
      <g
         transform="translate(-542.45087,-733.34082)"
         inkscape:label="Layer 3"
         id="layer3-7">
        <circle
           r="233.52045"
           cy="966.86127"
           cx="775.97131"
           id="path4955"
           style="opacity:1;fill:#006994;fill-opacity:1;stroke:none;stroke-width:11.15348721;stroke-miterlimit:4;stroke-dasharray:none;stroke-opacity:1" />
        <g
           transform="translate(487.56083,29.077017)"
           inkscape:label="Layer 1"
           id="layer1-5" />
        <g
           transform="translate(-2.9945051,1.4556582)"
           inkscape:label="Layer 3"
           id="layer3-8">
          <path
             sodipodi:nodetypes="cccssccccssscscccscsccsssscssccsscsccsccsscscscsccscccsccsccccsscccccccccccscc"
             inkscape:connector-curvature="0"
             id="path819"
             d="m 559.16566,922.47101 15.24474,-5.75273 c 0,0 15.53238,-2.87637 71.04626,23.29857 -0.33938,-0.33938 29.44681,1.33178 29.62658,-16.68293 0.0516,-5.17475 -2.19196,-6.99024 -4.39136,-8.22889 -3.83565,-2.16015 -8.99008,-0.69755 -12.03019,1.1694 -1.98925,1.52974 -4.00565,1.07314 -5.06373,-0.52553 -2.98945,-4.50943 -9.77878,-15.34827 -13.03112,-11.399 -0.68055,3.42578 4.04489,13.25937 4.31455,14.95711 0.86291,1.43818 1.15054,8.91673 -6.04037,1.43818 -7.19092,-7.47855 -8.91674,-24.73675 -18.98402,-26.75021 -10.06729,-2.01346 -9.77965,10.06728 -27.32549,12.94365 l -17.54583,2.87637 c 0,0 -12.36838,11.50546 -18.12111,0.57527 -5.75273,-10.93019 -1.43818,-22.14802 23.01093,-20.13457 0,0 5.4651,5.4651 8.91674,4.02692 3.45164,-1.43819 12.94365,-6.04037 7.19091,-15.82002 0,0 -1.40627,-4.1635 6.93519,-6.75223 8.34146,-2.58873 17.1914,-10.43917 17.1914,-10.43917 0,0 17.95379,-6.62951 37.7153,2.23429 16.41314,7.36192 25.38407,-11.30016 25.31202,-11.21782 0,0 10.64256,-8.6291 12.65601,-9.20438 2.01346,-0.57527 -0.57527,-7.47855 -11.50546,-4.88982 -10.93019,2.58873 -8.33601,13.83349 -23.87384,16.97056 -15.84127,3.19833 -45.80329,-12.71732 -35.66695,-22.72329 8.90345,-8.78893 21.44031,-20.45962 50.33642,-16.68293 13.35322,1.74525 40.66794,-14.27968 54.07569,-4.31455 0,0 1.43818,4.60219 -11.21783,8.91674 -12.65602,4.31455 -20.42221,11.50546 -15.24475,14.38183 5.17746,2.87637 14.38184,-1.72582 14.38184,-1.72582 0,0 19.55929,-10.93019 22.43566,-13.80656 2.87636,-2.87637 18.98402,-4.31455 6.61564,-13.23129 -12.36838,-8.91673 -17.83347,-11.50546 -16.39529,-24.16147 1.43818,-12.65602 -2.96208,-17.19458 -73.63498,-13.23129 0,0 80.53826,-65.8688 209.97476,-18.98402 129.43649,46.88477 139.79142,166.54162 139.79142,166.54162 0,0 -4.0269,25.59967 -25.59967,11.79311 0,0 -4.60219,-9.77965 -11.50547,-8.91674 -6.90328,0.86291 -2.01345,16.68293 -2.01345,16.68293 0,0 0,2.30109 1.72582,4.31455 1.72582,2.01345 8.91673,8.91673 2.01345,12.65601 -6.90328,3.73928 -15.24474,10.93019 -26.46257,11.50547 -11.21783,0.57527 -16.10765,25.88729 -13.80656,31.35239 2.30109,5.46508 16.97056,26.17498 11.7931,28.76368 -5.17746,2.5887 -10.93019,0.5753 -39.40622,-27.03786 0,0 -13.80656,-47.46005 -25.31202,-47.74768 -11.50547,-0.28764 -15.82002,5.75273 -15.82002,5.75273 0,0 2.01346,13.80656 -0.57527,19.55929 -2.58873,5.75273 -7.47856,15.24474 -7.47856,15.24474 0,0 -4.88982,6.90328 -12.08074,-2.87636 -7.19091,-9.77965 -30.48948,-17.54584 -40.26913,-19.5593 -9.77965,-2.01345 -19.84693,-14.09419 -20.4222,-22.14802 -0.57528,-8.05382 -6.90328,-14.9571 -14.66947,-15.53238 -7.76619,-0.57527 -25.31203,-15.82001 -25.31203,-15.82001 0,0 -8.34146,-3.45164 -5.17746,4.60218 3.16401,8.05383 36.52986,39.11859 36.52986,39.11859 0,0 8.34146,12.65601 -19.84693,23.5862 0,0 -7.76619,6.32801 -18.98402,-5.75273 -11.21783,-12.08074 -23.29857,-25.31202 -23.29857,-25.31202 0,0 -3.45164,-0.86291 -2.87637,7.19091 0.57528,8.05383 8.91674,29.62658 24.16148,37.10513 15.24475,7.47859 14.95711,13.80659 14.95711,13.80659 0,0 0.86291,8.0538 -5.17746,12.656 -6.04037,4.6022 -19.55929,11.7931 -18.40875,32.2153 1.15055,20.4222 -4.57718,21.3662 -6.2043,33.1628 0,0 -4.47457,2.8474 -7.72881,6.5084 -3.25424,3.6611 -8.13559,23.5933 -8.13559,23.5933 0,0 -10.57627,30.1017 -44.74577,25.6271 0,0 -9.35593,-2.0339 -8.94915,-44.339 0,0 -4.88135,5.2881 -7.9322,-6.9153 -3.05085,-12.2033 -1.01695,-22.7796 -8.94915,-19.9322 -7.93221,2.8475 -8.1356,3.2543 -9.55933,-5.0847 -1.42372,-8.339 -7.9322,-10.9831 -7.9322,-10.9831 0,0 -9.15254,-12 -15.05085,-8.1355 -5.8983,3.8644 -21.35593,11.5932 -21.35593,11.5932 0,0 -9.55932,3.661 -13.42373,-4.8814 -3.8644,-8.5424 -19.52542,-54.50845 -15.8644,-111.86439 0,0 11.48386,-14.4478 12.45379,-19.2239 z"
             style="opacity:1;fill:#48773e;fill-opacity:1;fill-rule:evenodd;stroke:none;stroke-width:1.755;stroke-linecap:round;stroke-linejoin:bevel;stroke-miterlimit:4;stroke-dasharray:none;stroke-opacity:1;paint-order:normal" />
          <path
             inkscape:connector-curvature="0"
             id="path825"
             d="m 845.89831,1170.7119 c 0,0 5.08474,2.2373 7.9322,-0.8136 2.84746,-3.0508 34.16949,-37.4237 66.30509,-17.6949 0,0 -82.98306,70.1695 -205.01695,38.4407 -9.72573,-10.2592 -6.38193,-19.0797 24.10756,-35.475 30.48949,-16.3953 106.6721,15.5428 106.6721,15.5428 z"
             style="opacity:1;fill:#48773e;fill-opacity:1;fill-rule:evenodd;stroke:none;stroke-width:1.755;stroke-linecap:round;stroke-linejoin:bevel;stroke-miterlimit:4;stroke-dasharray:none;stroke-opacity:1;paint-order:normal" />
          <path
             sodipodi:nodetypes="cscccc"
             inkscape:connector-curvature="0"
             id="path821"
             d="m 563.38983,878.64407 c 0.0245,-0.41657 13.52366,-38.37251 25.40241,-41.16969 10.11847,-2.38267 26.88411,-1.4552 25.45584,5.03364 -1.43818,6.47182 -13.3751,7.76619 -18.12111,13.23128 -4.746,5.4651 -22.43566,22.43566 -26.31875,23.73003 -3.8831,1.29436 -6.41839,-0.82526 -6.41839,-0.82526 z"
             style="opacity:1;fill:#48773e;fill-opacity:1;fill-rule:evenodd;stroke:none;stroke-width:1.755;stroke-linecap:round;stroke-linejoin:bevel;stroke-miterlimit:4;stroke-dasharray:none;stroke-opacity:1;paint-order:normal" />
          <path
             sodipodi:nodetypes="ccscc"
             inkscape:connector-curvature="0"
             id="path823"
             d="m 592.24388,820.64763 16.39529,-19.70311 c 0,0 17.2582,-10.06728 18.12111,0.71909 0.86291,10.78638 -3.59546,15.10093 -3.59546,15.10093 0,0 -25.74348,21.28511 -30.92094,3.88309 z"
             style="opacity:1;fill:#48773e;fill-opacity:1;fill-rule:evenodd;stroke:none;stroke-width:1.755;stroke-linecap:round;stroke-linejoin:bevel;stroke-miterlimit:4;stroke-dasharray:none;stroke-opacity:1;paint-order:normal" />
          <path
             inkscape:connector-curvature="0"
             id="path827"
             d="m 734.23729,1038.9153 c 0,0 -9.76271,38.4406 -4.0678,47.7966 5.69492,9.3559 15.86441,-36.6102 15.86441,-36.6102 0,0 10.37288,-16.0678 5.69492,-21.3559 -4.67797,-5.2882 -17.89831,6.9152 -17.49153,10.1695 z"
             style="opacity:1;fill:#48773e;fill-opacity:1;fill-rule:evenodd;stroke:none;stroke-width:1.755;stroke-linecap:round;stroke-linejoin:bevel;stroke-miterlimit:4;stroke-dasharray:none;stroke-opacity:1;paint-order:normal" />
          <path
             inkscape:connector-curvature="0"
             id="path829"
             d="m 819.66102,992.94915 c 0,0 -3.25424,3.86441 3.45763,7.72885 6.71186,3.8644 22.16949,3.4576 20.74576,-3.25427 -1.42373,-6.71187 -16.27119,-16.47458 -24.20339,-4.47458 z"
             style="opacity:1;fill:#48773e;fill-opacity:1;fill-rule:evenodd;stroke:none;stroke-width:1.755;stroke-linecap:round;stroke-linejoin:bevel;stroke-miterlimit:4;stroke-dasharray:none;stroke-opacity:1;paint-order:normal" />
          <path
             inkscape:connector-curvature="0"
             id="path831"
             d="m 984.43646,1026.3078 c 0,0 -17.11438,17.2582 -50.76787,20.1346 -33.65349,2.8764 -50.1926,28.3322 -49.18587,41.2759 1.00673,12.9436 2.3011,13.2313 3.59546,22.7233 1.29437,9.492 3.02019,23.4424 11.7931,19.1278 8.77292,-4.3145 18.55257,-10.0673 18.12111,-7.7662 -0.43145,2.3011 -3.30782,8.0538 1.43819,8.4853 4.746,0.4314 7.33473,-7.0471 13.66274,-3.5955 6.328,3.4517 10.93019,5.609 12.51219,2.8764 1.582,-2.7325 58.24639,-70.471 51.05551,-86.8663 -7.19092,-16.3953 -5.17746,-17.2582 -12.22456,-16.3953 z"
             style="opacity:1;fill:#48773e;fill-opacity:1;fill-rule:evenodd;stroke:none;stroke-width:1.755;stroke-linecap:round;stroke-linejoin:bevel;stroke-miterlimit:4;stroke-dasharray:none;stroke-opacity:1;paint-order:normal" />
          <path
             sodipodi:nodetypes="csccc"
             inkscape:connector-curvature="0"
             id="path833"
             d="m 943.59206,985.03198 c 0,0 -4.88983,0.86291 -3.8831,6.75946 1.00673,5.89656 6.75946,9.92346 6.75946,9.92346 0.38478,1.0849 14.38409,2.739 12.08074,-3.16399 -2.30109,-5.89656 -10.78637,-16.10766 -14.9571,-13.51893 z"
             style="opacity:1;fill:#48773e;fill-opacity:1;fill-rule:evenodd;stroke:none;stroke-width:1.755;stroke-linecap:round;stroke-linejoin:bevel;stroke-miterlimit:4;stroke-dasharray:none;stroke-opacity:1;paint-order:normal" />
          <path
             sodipodi:nodetypes="ccc"
             inkscape:connector-curvature="0"
             id="path835"
             d="m 948.91333,1020.9866 c 5.75274,5.6089 23.29857,5.8965 22.7233,-1.4382 -8.39,-19.80165 -31.75619,-8.653 -22.7233,1.4382 z"
             style="opacity:1;fill:#48773e;fill-opacity:1;fill-rule:evenodd;stroke:none;stroke-width:1.755;stroke-linecap:round;stroke-linejoin:bevel;stroke-miterlimit:4;stroke-dasharray:none;stroke-opacity:1;paint-order:normal" />
          <path
             inkscape:connector-curvature="0"
             id="path837"
             d="m 991.32204,937.22034 5.69491,9.9661 c 0,0 1.42373,3.05085 -0.81356,5.28813 -2.23729,2.23729 -22.16949,30.30509 11.79661,61.62713 0,0 9.1525,-56.74577 1.2203,-67.72882 -7.9322,-10.98305 -17.89826,-9.15254 -17.89826,-9.15254 z"
             style="opacity:1;fill:#48773e;fill-opacity:1;fill-rule:evenodd;stroke:none;stroke-width:1.755;stroke-linecap:round;stroke-linejoin:bevel;stroke-miterlimit:4;stroke-dasharray:none;stroke-opacity:1;paint-order:normal" />
        </g>
      </g>
    </g>
  </g>
</svg>
