<svg xmlns="http://www.w3.org/2000/svg" xmlns:svg="http://www.w3.org/2000/svg" id="svg16" width="500" height="500" version="1.1" viewBox="0 0 132.292 132.292"><defs id="defs10"><style id="style63"/></defs><metadata id="metadata13"/><g id="layer1" transform="translate(-42.333333,-37.708316)"><g id="g847" transform="matrix(1.0826087,0,0,1.0826087,-2.9679329,-14.043472)"><circle id="path965" cx="103.188" cy="109.146" r="60.854" style="fill:#006994;fill-opacity:1;stroke-width:.29315105"/><g id="g963" transform="matrix(0.98650338,0,0,0.98650338,-9.6839331,1.6746402)"><path style="opacity:1;fill:#48773e;fill-opacity:1;fill-rule:evenodd;stroke:none;stroke-width:.46434376;stroke-linecap:round;stroke-linejoin:bevel;stroke-miterlimit:4;stroke-dasharray:none;stroke-opacity:1;paint-order:normal" id="path819" d="m 56.169595,97.449968 4.033504,-1.522078 c 0,0 4.109609,-0.761039 18.79766,6.16442 -0.0898,-0.0898 7.79113,0.35236 7.83869,-4.414032 0.0136,-1.369152 -0.57995,-1.849501 -1.16188,-2.177227 -1.01485,-0.571539 -2.37862,-0.18456 -3.18298,0.309404 -0.52633,0.404744 -1.05983,0.283935 -1.33978,-0.139046 -0.79096,-1.193121 -2.5873,-4.060897 -3.447818,-3.015986 -0.180063,0.906404 1.070208,3.508208 1.141558,3.957402 0.22831,0.380523 0.30441,2.359213 -1.598182,0.380523 -1.902597,-1.978704 -2.35922,-6.544936 -5.022855,-7.077664 -2.663637,-0.532728 -2.587532,2.663634 -7.229869,3.424674 l -4.642335,0.761039 c 0,0 -3.272467,3.044151 -4.794543,0.152207 -1.522077,-2.891946 -0.380519,-5.859997 6.088308,-5.327271 0,0 1.445975,1.445974 2.359221,1.065456 0.913247,-0.380522 3.424674,-1.598182 1.902595,-4.185714 0,0 -0.372075,-1.101593 1.834936,-1.786528 2.207011,-0.684934 4.548558,-2.76203 4.548558,-2.76203 0,0 4.750273,-1.754058 9.978836,0.591156 4.34265,1.947841 6.7162,-2.989834 6.69714,-2.968048 0,0 2.81585,-2.283116 3.34857,-2.435326 0.53273,-0.152207 -0.15221,-1.978699 -3.04415,-1.293765 -2.89195,0.684935 -2.20557,3.660111 -6.31662,4.490128 -4.19134,0.846224 -12.118789,-3.364791 -9.436882,-6.012205 2.355704,-2.325404 5.672752,-5.413274 13.318172,-4.414025 3.53304,0.461764 10.76006,-3.778166 14.307531,-1.141558 0,0 0.38052,1.217663 -2.968051,2.359221 -3.34857,1.141558 -5.40338,3.044153 -4.03351,3.805193 1.36987,0.761039 3.8052,-0.456623 3.8052,-0.456623 0,0 5.175061,-2.891947 5.936101,-3.652987 0.76104,-0.761039 5.02286,-1.141558 1.75039,-3.500779 -3.27247,-2.359218 -4.71844,-3.044153 -4.33792,-6.392722 0.38052,-3.348572 -0.78372,-4.549399 -19.482591,-3.500779 0,0 21.309081,-17.427786 55.555821,-5.022855 34.24674,12.404929 36.98648,44.064138 36.98648,44.064138 0,0 -1.06545,6.773249 -6.77324,3.120257 0,0 -1.21767,-2.587529 -3.04416,-2.359218 -1.82649,0.228312 -0.53273,4.41403 -0.53273,4.41403 0,0 0,0.60883 0.45663,1.14156 0.45662,0.53272 2.35922,2.35921 0.53272,3.34856 -1.82649,0.98936 -4.0335,2.89195 -7.00155,3.04416 -2.96805,0.15221 -4.26182,6.84934 -3.65299,8.29531 0.60883,1.44597 4.49013,6.92546 3.12026,7.61039 -1.36987,0.68493 -2.89195,0.15222 -10.42623,-7.15377 0,0 -3.65298,-12.55713 -6.69714,-12.63323 -3.04415,-0.0761 -4.18571,1.52208 -4.18571,1.52208 0,0 0.53273,3.65297 -0.15221,5.17505 -0.68493,1.52208 -1.9787,4.03351 -1.9787,4.03351 0,0 -1.29377,1.82649 -3.19636,-0.76104 -1.9026,-2.58753 -8.06701,-4.64234 -10.65454,-5.17507 -2.58754,-0.53271 -5.25117,-3.72907 -5.40338,-5.85998 -0.15221,-2.13091 -1.82649,-3.957402 -3.88129,-4.109612 -2.05481,-0.15221 -6.69715,-4.185713 -6.69715,-4.185713 0,0 -2.20701,-0.913246 -1.36987,1.217661 0.83715,2.130912 9.6652,10.350124 9.6652,10.350124 0,0 2.20701,3.34856 -5.25117,6.24051 0,0 -2.0548,1.67429 -5.02286,-1.52208 -2.968051,-3.19635 -6.164411,-6.69713 -6.164411,-6.69713 0,0 -0.91325,-0.22831 -0.76104,1.9026 0.15221,2.13091 2.35922,7.83869 6.392731,9.81739 4.0335,1.97871 3.9574,3.65299 3.9574,3.65299 0,0 0.22831,2.1309 -1.36987,3.34857 -1.59818,1.21766 -5.175061,3.12026 -4.870651,8.52363 0.30442,5.40337 -1.21105,5.65314 -1.64155,8.77432 0,0 -1.1839,0.75338 -2.04492,1.72202 -0.86102,0.96866 -2.15254,6.24239 -2.15254,6.24239 0,0 -2.7983,7.96441 -11.83898,6.78051 0,0 -2.47543,-0.53814 -2.3678,-11.73136 0,0 -1.291524,1.39914 -2.098728,-1.82968 -0.807204,-3.22879 -0.269068,-6.0271 -2.367796,-5.27373 -2.09873,0.75341 -2.152544,0.86104 -2.529239,-1.34532 -0.376693,-2.20636 -2.098728,-2.90595 -2.098728,-2.90595 0,0 -2.42161,-3.175 -3.982204,-2.15252 -1.560592,1.02246 -5.650423,3.06737 -5.650423,3.06737 0,0 -2.529237,0.96864 -3.551696,-1.29153 -1.022455,-2.26018 -5.1661,-14.42203 -4.197455,-29.59745 0,0 3.038438,-3.822652 3.295065,-5.086322 z"/><path style="opacity:1;fill:#48773e;fill-opacity:1;fill-rule:evenodd;stroke:none;stroke-width:.46434376;stroke-linecap:round;stroke-linejoin:bevel;stroke-miterlimit:4;stroke-dasharray:none;stroke-opacity:1;paint-order:normal" id="path825" d="m 132.03428,163.13036 c 0,0 1.34533,0.59195 2.09872,-0.21527 0.75339,-0.80719 9.04068,-9.90168 17.54322,-4.68177 0,0 -21.95593,18.56568 -54.244061,10.17077 -2.57327,-2.71442 -1.68856,-5.04817 6.378461,-9.3861 8.06701,-4.33792 28.22366,4.11237 28.22366,4.11237 z"/><path style="opacity:1;fill:#48773e;fill-opacity:1;fill-rule:evenodd;stroke:none;stroke-width:.46434376;stroke-linecap:round;stroke-linejoin:bevel;stroke-miterlimit:4;stroke-dasharray:none;stroke-opacity:1;paint-order:normal" id="path821" d="m 57.28724,85.854089 c 0.0065,-0.110218 3.578135,-10.152727 6.721054,-10.892814 2.677179,-0.630415 7.113088,-0.385022 6.735191,1.331817 -0.380518,1.712336 -3.538828,2.054805 -4.794543,3.500777 -1.255713,1.445974 -5.936102,5.936101 -6.963503,6.27857 -1.027404,0.342466 -1.698199,-0.21835 -1.698199,-0.21835 z"/><path style="opacity:1;fill:#48773e;fill-opacity:1;fill-rule:evenodd;stroke:none;stroke-width:.46434376;stroke-linecap:round;stroke-linejoin:bevel;stroke-miterlimit:4;stroke-dasharray:none;stroke-opacity:1;paint-order:normal" id="path823" d="m 64.921541,70.509197 4.33792,-5.213115 c 0,0 4.566232,-2.663634 4.794544,0.190259 0.228311,2.853897 -0.951299,3.995455 -0.951299,3.995455 0,0 -6.811296,5.631686 -8.181165,1.027401 z"/><path style="opacity:1;fill:#48773e;fill-opacity:1;fill-rule:evenodd;stroke:none;stroke-width:.46434376;stroke-linecap:round;stroke-linejoin:bevel;stroke-miterlimit:4;stroke-dasharray:none;stroke-opacity:1;paint-order:normal" id="path827" d="m 102.49063,128.25918 c 0,0 -2.583051,10.17074 -1.07627,12.64618 1.50678,2.47542 4.19746,-9.68645 4.19746,-9.68645 0,0 2.74449,-4.25127 1.50678,-5.65041 -1.23772,-1.39917 -4.7356,1.82964 -4.62797,2.69068 z"/><path style="opacity:1;fill:#48773e;fill-opacity:1;fill-rule:evenodd;stroke:none;stroke-width:.46434376;stroke-linecap:round;stroke-linejoin:bevel;stroke-miterlimit:4;stroke-dasharray:none;stroke-opacity:1;paint-order:normal" id="path829" d="m 125.09233,116.0973 c 0,0 -0.86102,1.02246 0.91483,2.04492 1.77584,1.02246 5.86567,0.91483 5.48898,-0.86102 -0.3767,-1.77585 -4.30509,-4.3589 -6.40381,-1.1839 z"/><path style="opacity:1;fill:#48773e;fill-opacity:1;fill-rule:evenodd;stroke:none;stroke-width:.46434376;stroke-linecap:round;stroke-linejoin:bevel;stroke-miterlimit:4;stroke-dasharray:none;stroke-opacity:1;paint-order:normal" id="path831" d="m 168.68916,124.92344 c 0,0 -4.52818,4.56623 -13.43233,5.32728 -8.90415,0.76105 -13.28013,7.49623 -13.01376,10.92092 0.26636,3.42466 0.60883,3.50078 0.9513,6.0122 0.34246,2.51143 0.79909,6.20247 3.12025,5.0609 2.32117,-1.14154 4.9087,-2.66364 4.79455,-2.05481 -0.11416,0.60884 -0.8752,2.1309 0.38052,2.24507 1.25571,0.11414 1.94065,-1.86454 3.61493,-0.95131 1.67429,0.91326 2.89195,1.48405 3.31052,0.76105 0.41857,-0.72297 15.41102,-18.64545 13.50844,-22.98337 -1.9026,-4.33793 -1.36987,-4.56624 -3.23442,-4.33793 z"/><path style="opacity:1;fill:#48773e;fill-opacity:1;fill-rule:evenodd;stroke:none;stroke-width:.46434376;stroke-linecap:round;stroke-linejoin:bevel;stroke-miterlimit:4;stroke-dasharray:none;stroke-opacity:1;paint-order:normal" id="path833" d="m 157.88241,114.00255 c 0,0 -1.29376,0.22831 -1.0274,1.78844 0.26636,1.56013 1.78844,2.62558 1.78844,2.62558 0.10181,0.28705 3.80579,0.72469 3.19636,-0.83714 -0.60883,-1.56013 -2.85389,-4.26182 -3.9574,-3.57688 z"/><path style="opacity:1;fill:#48773e;fill-opacity:1;fill-rule:evenodd;stroke:none;stroke-width:.46434376;stroke-linecap:round;stroke-linejoin:bevel;stroke-miterlimit:4;stroke-dasharray:none;stroke-opacity:1;paint-order:normal" id="path835" d="m 159.29033,123.51554 c 1.52208,1.48402 6.16442,1.56012 6.01221,-0.38052 -2.21985,-5.23919 -8.40216,-2.28944 -6.01221,0.38052 z"/><path style="opacity:1;fill:#48773e;fill-opacity:1;fill-rule:evenodd;stroke:none;stroke-width:.46434376;stroke-linecap:round;stroke-linejoin:bevel;stroke-miterlimit:4;stroke-dasharray:none;stroke-opacity:1;paint-order:normal" id="path837" d="m 170.51097,101.3524 1.50678,2.63686 c 0,0 0.37669,0.8072 -0.21526,1.39915 -0.59194,0.59195 -5.86567,8.01821 3.12119,16.3055 0,0 2.4216,-15.01397 0.32287,-17.91991 -2.09873,-2.90593 -4.73558,-2.4216 -4.73558,-2.4216 z"/></g></g></g><style id="style419" type="text/css"/></svg>